<?xml version="1.0" encoding="UTF-8"?>
<svg xmlns="http://www.w3.org/2000/svg" xmlns:xlink="http://www.w3.org/1999/xlink" width="50pt" height="50pt" viewBox="0 0 50 50" version="1.1">
<g id="surface1">
<path style=" stroke:none;fill-rule:nonzero;fill:rgb(0%,0%,0%);fill-opacity:1;" d="M 20.507812 7.609375 C 16.902344 8.898438 14.21875 12.835938 14.617188 16.308594 C 14.882812 18.71875 15.875 20.207031 20.074219 24.472656 L 24.109375 28.609375 L 28.117188 24.644531 C 32.710938 20.074219 33.734375 18.425781 33.734375 15.546875 C 33.734375 9.425781 26.925781 5.355469 20.507812 7.609375 Z M 27.21875 8.734375 C 29.171875 9.460938 30.761719 10.847656 31.617188 12.699219 C 32.875 15.382812 32.511719 17.828125 30.5625 20.144531 C 27.289062 23.945312 20.042969 23.617188 17.328125 19.515625 C 16.042969 17.5625 15.746094 15.808594 16.371094 13.691406 C 16.964844 11.574219 18.917969 9.527344 20.972656 8.800781 C 22.691406 8.199219 25.601562 8.171875 27.21875 8.734375 Z M 27.21875 8.734375 "/>
<path style=" stroke:none;fill-rule:nonzero;fill:rgb(0%,0%,0%);fill-opacity:1;" d="M 19.382812 10.746094 C 17.664062 13 18.253906 15.015625 20.574219 14.882812 C 21.171875 14.851562 21.898438 14.816406 22.191406 14.851562 C 22.789062 14.882812 23.21875 16.238281 23.316406 18.191406 C 23.417969 19.808594 24.34375 21.828125 24.972656 21.828125 C 25.601562 21.828125 27.519531 19.910156 27.289062 19.515625 C 27.1875 19.382812 27.355469 19.082031 27.617188 18.855469 C 27.882812 18.621094 28.117188 17.960938 28.117188 17.398438 C 28.117188 16.636719 28.410156 16.042969 29.109375 15.382812 C 30.296875 14.253906 30.328125 13.957031 29.371094 13.828125 C 28.742188 13.726562 27.78125 12.664062 26.824219 10.980469 C 26.691406 10.746094 25.863281 10.484375 25.007812 10.453125 C 24.109375 10.382812 23.28125 10.152344 23.183594 9.953125 C 23.019531 9.726562 22.328125 9.589844 21.535156 9.65625 C 20.40625 9.726562 19.980469 9.953125 19.382812 10.746094 Z M 19.382812 10.746094 "/>
<path style=" stroke:none;fill-rule:nonzero;fill:rgb(0%,0%,0%);fill-opacity:1;" d="M 29.109375 18.324219 C 28.910156 18.589844 28.773438 19.152344 28.84375 19.582031 C 28.941406 20.308594 29.007812 20.273438 29.535156 19.28125 C 29.835938 18.6875 30.097656 18.15625 30.097656 18.027344 C 30.097656 17.691406 29.5 17.863281 29.109375 18.324219 Z M 29.109375 18.324219 "/>
<path style=" stroke:none;fill-rule:nonzero;fill:rgb(0%,0%,0%);fill-opacity:1;" d="M 32.414062 29.964844 C 32.414062 31.191406 32.316406 31.453125 32.015625 31.15625 C 31.320312 30.460938 29.308594 30.691406 28.480469 31.554688 C 26.425781 33.734375 28.742188 37.175781 31.519531 36.117188 C 32.214844 35.855469 32.679688 35.855469 32.875 36.054688 C 33.636719 36.808594 33.769531 36.183594 33.671875 32.511719 C 33.570312 29.109375 33.507812 28.609375 33.007812 28.507812 C 32.511719 28.410156 32.414062 28.644531 32.414062 29.964844 Z M 31.683594 31.953125 C 32.679688 32.644531 32.710938 34.5625 31.71875 35.0625 C 30.792969 35.554688 29.535156 35.226562 29.074219 34.363281 C 28.574219 33.40625 28.972656 32.117188 29.863281 31.753906 C 30.863281 31.355469 30.863281 31.355469 31.683594 31.953125 Z M 31.683594 31.953125 "/>
<path style=" stroke:none;fill-rule:nonzero;fill:rgb(0%,0%,0%);fill-opacity:1;" d="M 35.0625 32.050781 C 35.0625 35.820312 35.324219 36.582031 36.617188 36.316406 C 37.410156 36.183594 37.609375 35.125 36.808594 35.191406 C 36.28125 35.226562 36.21875 34.863281 36.117188 31.816406 C 36.054688 29.109375 35.917969 28.445312 35.554688 28.445312 C 35.160156 28.445312 35.0625 29.109375 35.0625 32.050781 Z M 35.0625 32.050781 "/>
<path style=" stroke:none;fill-rule:nonzero;fill:rgb(0%,0%,0%);fill-opacity:1;" d="M 8 32.480469 C 8.101562 35.71875 8.171875 36.21875 8.699219 36.316406 C 9.164062 36.417969 9.261719 36.183594 9.261719 35.089844 C 9.261719 33.769531 9.292969 33.734375 10.355469 33.734375 C 11.210938 33.769531 11.574219 34 12.300781 35.0625 C 12.800781 35.789062 13.460938 36.382812 13.726562 36.382812 C 14.390625 36.382812 14.355469 36.21875 13.398438 34.792969 C 12.601562 33.636719 12.601562 33.570312 13.199219 32.910156 C 14.054688 31.953125 14.253906 31.191406 13.855469 30.296875 C 13.363281 29.207031 12.207031 28.773438 9.890625 28.773438 L 7.90625 28.773438 Z M 12.5 30.164062 C 13.59375 31.253906 12.472656 32.746094 10.554688 32.746094 L 9.261719 32.746094 L 9.261719 29.765625 L 10.683594 29.765625 C 11.476562 29.765625 12.273438 29.933594 12.5 30.164062 Z M 12.5 30.164062 "/>
<path style=" stroke:none;fill-rule:nonzero;fill:rgb(0%,0%,0%);fill-opacity:1;" d="M 15.382812 31.589844 C 14.320312 32.609375 14.320312 34.066406 15.347656 35.289062 C 16.007812 36.054688 16.40625 36.21875 17.664062 36.21875 C 18.621094 36.21875 19.347656 36.019531 19.710938 35.65625 C 20.574219 34.828125 19.980469 34.335938 18.882812 34.992188 C 17.726562 35.65625 16.109375 35.257812 15.945312 34.300781 C 15.84375 33.734375 16.074219 33.703125 18.253906 33.769531 C 20.609375 33.835938 20.671875 33.800781 20.574219 33.042969 C 20.308594 30.828125 17.035156 29.898438 15.382812 31.589844 Z M 18.789062 31.953125 C 19.945312 32.746094 19.644531 33.074219 17.691406 33.074219 C 15.746094 33.074219 15.582031 32.945312 16.4375 32.015625 C 17.101562 31.289062 17.828125 31.253906 18.789062 31.953125 Z M 18.789062 31.953125 "/>
<path style=" stroke:none;fill-rule:nonzero;fill:rgb(0%,0%,0%);fill-opacity:1;" d="M 21.992188 31.589844 C 20.773438 32.78125 20.871094 34.429688 22.191406 35.523438 C 22.753906 35.984375 23.582031 36.382812 24.011719 36.382812 C 24.9375 36.382812 26.789062 35.523438 26.789062 35.089844 C 26.789062 34.5625 25.863281 34.429688 25.464844 34.925781 C 24.671875 35.855469 22.492188 35.324219 22.492188 34.164062 C 22.492188 33.871094 23.117188 33.734375 24.808594 33.734375 C 26.925781 33.734375 27.121094 33.671875 27.121094 33.074219 C 27.121094 31.882812 25.664062 30.761719 24.144531 30.761719 C 23.152344 30.761719 22.589844 30.957031 21.992188 31.589844 Z M 25.566406 32.148438 L 26.292969 32.910156 L 25.234375 33.007812 C 24.644531 33.074219 23.648438 33.074219 23.089844 33.007812 L 21.992188 32.910156 L 22.753906 32.148438 C 23.152344 31.753906 23.78125 31.417969 24.144531 31.417969 C 24.507812 31.417969 25.136719 31.753906 25.566406 32.148438 Z M 25.566406 32.148438 "/>
<path style=" stroke:none;fill-rule:nonzero;fill:rgb(0%,0%,0%);fill-opacity:1;" d="M 38.363281 33.40625 C 39.457031 35.554688 39.625 36.183594 39.363281 36.714844 C 39.164062 37.078125 38.796875 37.375 38.535156 37.375 C 38.269531 37.375 38.035156 37.609375 38.035156 37.871094 C 38.035156 38.464844 39.527344 38.535156 39.917969 37.9375 C 40.054688 37.738281 40.882812 36.019531 41.707031 34.136719 C 43.027344 31.253906 43.199219 30.761719 42.664062 30.761719 C 42.269531 30.761719 41.808594 31.390625 41.179688 32.808594 L 40.28125 34.890625 L 39.261719 32.808594 C 38.5625 31.453125 38.035156 30.761719 37.636719 30.761719 C 37.109375 30.761719 37.210938 31.125 38.363281 33.40625 Z M 38.363281 33.40625 "/>
</g>
</svg>
